# xmcd
#
# Track frame offsets: 
#        150
#        13322
#        30112
#        41970
#        55857
#        70437
#        85657
#        97745
#        110432
#        121457
#        135105
#        146875
#        160230
#        175230
#        188955
#        201409
#        214234
#        225920
#        240697
#        263792
#        278845
#        293022
#        305145
#        318385
#
# Disc length: 4415 seconds
#
# Revision: 1
# Processed by: cddbd v1.5.2PL0 Copyright (c) Steve Scherf et al.
# Submitted via: ExactAudioCopy v0.99pb3
#
DISCID=5b113d18
DTITLE=Various Artist - Jazz: Tenth Edition CD1
DYEAR=1900
DGENRE=Jazz
TTITLE0=Julie Ann (Juliana) Johnson - H Ledbetter
TTITLE1=Dry Bones - Rev. J.M. Gates
TTITLE2=Hellhound on My Trail - Robert Johnson
TTITLE3=Empty Bed Blues - J.C. Johnson 
TTITLE4=Fine and Mellow - Billie Holiday
TTITLE5=Maple Leaf Rag - Scott Joplin
TTITLE6=Maple Leaf Rag - Jelly Roll Morton
TTITLE7=Carolina Shout - JP Johnson
TTITLE8=Elegia - Art Tatum
TTITLE9=Hony Tonk Train Blues - Meade "Lux" Lewis
TTITLE10=Dippermouth Blues - King Oliver's Creole Jazz Band
TTITLE11=Maple Leaf Rag - The New Orleans Footwarmers Featuring Sidney
TTITLE11=Bechet
TTITLE12=West End Blues - Louis Armstrong and His Hot Five
TTITLE13=Singin' The Blues - Frankie Trumbauer and His Orchestra Feat. B
TTITLE13=ix Beiderbecke
TTITLE14=Wrappin' It Up - Fletcher Henderson and His Orchestra
TTITLE15=Taxi War Dance - Count Basie and His Orchestra
TTITLE16=The Man I Love - Coleman Hawkins
TTITLE17=Lester Leaps In - Count Basie's Kansas City Six 
TTITLE18=I Got Rhythm - The Benny Goodman Quartet
TTITLE19=In a Mellotone - Duke Ellington and His Quartet
TTITLE20=Passion Flower - Johnny Hodges
TTITLE21=Ko-Ko - Duke Ellington and His Quartet
TTITLE22=Koko - Charlie Parker's Re-Boppers
TTITLE23=Bag's Groove - Thelonius Monk
EXTD=
EXTT0=
EXTT1=
EXTT2=
EXTT3=
EXTT4=
EXTT5=
EXTT6=
EXTT7=
EXTT8=
EXTT9=
EXTT10=
EXTT11=
EXTT12=
EXTT13=
EXTT14=
EXTT15=
EXTT16=
EXTT17=
EXTT18=
EXTT19=
EXTT20=
EXTT21=
EXTT22=
EXTT23=
PLAYORDER=
